# Blender v2.90.1 OBJ File: ''
# www.blender.org
mtllib parcel_box.mtl
o Conveyor_Box_Conveyor_Box.001
v -0.248822 -0.199999 0.000000
v -0.248822 0.000000 0.000000
v 0.000000 0.000000 0.000000
v 0.000000 -0.199999 0.000000
v -0.248822 -0.199999 0.270113
v 0.000000 -0.199999 0.270113
v 0.000000 0.000000 0.270113
v -0.248822 0.000000 0.270113
v 0.248822 -0.199999 0.000000
v 0.248822 0.000000 0.000000
v 0.248822 -0.199999 0.270113
v 0.248822 0.000000 0.270113
v -0.248822 0.199999 0.000000
v 0.000000 0.199999 0.000000
v -0.248822 0.199999 0.270113
v 0.000000 0.199999 0.270113
v 0.248822 0.199999 0.000000
v 0.248822 0.199999 0.270113
vt 0.589894 0.002000
vt 0.871072 0.002000
vt 0.871072 0.283178
vt 0.589894 0.283178
vt 0.564357 0.319731
vt 0.845535 0.319731
vt 0.845535 0.600910
vt 0.564357 0.600910
vt 0.002000 0.319731
vt 0.002000 0.038553
vt 0.564357 0.038553
vt 0.002000 0.600910
vt 0.589894 0.002000
vt 0.871072 0.002000
vt 0.564357 0.319731
vt 0.564357 0.600910
vt 0.002000 0.319731
vt 0.002000 0.600910
vt 0.589894 0.002000
vt 0.589894 0.283178
vt 0.564357 0.319731
vt 0.845535 0.319731
vt 0.002000 0.319731
vt 0.564357 0.038553
vt 0.002000 0.038553
vt 0.589894 0.002000
vt 0.564357 0.319731
vt 0.002000 0.319731
vn 0.0000 0.0000 -1.0000
vn 0.0000 0.0000 1.0000
vn 0.0000 -1.0000 0.0000
vn -1.0000 0.0000 0.0000
vn 1.0000 0.0000 0.0000
vn 0.0000 1.0000 0.0000
usemtl ParcelBoxes.001
s 1
f 1/1/1 2/2/1 3/3/1 4/4/1
f 5/5/2 6/6/2 7/7/2 8/8/2
f 1/9/3 4/10/3 6/11/3 5/5/3
f 2/12/4 1/9/4 5/5/4 8/8/4
f 9/13/1 4/4/1 3/3/1 10/14/1
f 11/15/2 12/16/2 7/7/2 6/6/2
f 9/17/3 11/15/3 6/11/3 4/10/3
f 10/18/5 12/16/5 11/15/5 9/17/5
f 13/19/1 14/20/1 3/3/1 2/2/1
f 15/21/2 8/8/2 7/7/2 16/22/2
f 13/23/6 15/21/6 16/24/6 14/25/6
f 2/12/4 8/8/4 15/21/4 13/23/4
f 17/26/1 10/14/1 3/3/1 14/20/1
f 18/27/2 16/22/2 7/7/2 12/16/2
f 17/28/6 14/25/6 16/24/6 18/27/6
f 10/18/5 17/28/5 18/27/5 12/16/5
o Plane_Plane.001
v -0.180000 -0.180000 0.275000
v 0.180000 -0.180000 0.275000
v 0.180000 0.180000 0.275000
v -0.180000 0.180000 0.275000
vt 0.000000 0.000000
vt 1.000000 0.000000
vt 1.000000 1.000000
vt 0.000000 1.000000
vn 0.0000 0.0000 1.0000
usemtl Material.002
s 1
f 19/29/7 20/30/7 21/31/7 22/32/7
