# Blender v2.91.0 OBJ File: ''
# www.blender.org
mtllib returns.mtl
o Plane_Plane.007
v -2.600000 -2.600000 -0.001000
v 2.600000 -2.600000 -0.001000
v -2.600000 2.600000 -0.001000
v 2.600000 2.600000 -0.001000
v -0.750000 0.750000 0.000000
v 0.750000 0.750000 0.000000
v -0.750000 2.250000 0.000000
v 0.750000 2.250000 0.000000
v 0.750000 0.750000 0.000000
v 2.250000 0.750000 0.000000
v 0.750000 2.250000 0.000000
v 2.250000 2.250000 0.000000
v -2.250000 0.750000 0.000000
v -0.750000 0.750000 0.000000
v -2.250000 2.250000 0.000000
v -0.750000 2.250000 0.000000
v -0.750000 -2.250000 0.000000
v 0.750000 -2.250000 0.000000
v -0.750000 -0.750000 0.000000
v 0.750000 -0.750000 0.000000
v 0.750000 -2.250000 0.000000
v 2.250000 -2.250000 0.000000
v 0.750000 -0.750000 0.000000
v 2.250000 -0.750000 0.000000
v -2.250000 -2.250000 0.000000
v -0.750000 -2.250000 0.000000
v -2.250000 -0.750000 0.000000
v -0.750000 -0.750000 0.000000
v -0.750000 -0.750000 0.000000
v 0.750000 -0.750000 0.000000
v -0.750000 0.750000 0.000000
v 0.750000 0.750000 0.000000
v 0.750000 -0.750000 0.000000
v 2.250000 -0.750000 0.000000
v 0.750000 0.750000 0.000000
v 2.250000 0.750000 0.000000
v -2.250000 -0.750000 0.000000
v -0.750000 -0.750000 0.000000
v -2.250000 0.750000 0.000000
v -0.750000 0.750000 0.000000
vt 0.000000 0.000000
vt 1.000000 0.000000
vt 1.000000 1.000000
vt 0.000000 1.000000
vt 0.000000 0.000000
vt 1.000000 0.000000
vt 1.000000 1.000000
vt 0.000000 1.000000
vt 0.000000 0.000000
vt 1.000000 0.000000
vt 1.000000 1.000000
vt 0.000000 1.000000
vt 0.000000 0.000000
vt 1.000000 0.000000
vt 1.000000 1.000000
vt 0.000000 1.000000
vt 0.000000 0.000000
vt 1.000000 0.000000
vt 1.000000 1.000000
vt 0.000000 1.000000
vt 0.000000 0.000000
vt 1.000000 0.000000
vt 1.000000 1.000000
vt 0.000000 1.000000
vt 0.000000 0.000000
vt 1.000000 0.000000
vt 1.000000 1.000000
vt 0.000000 1.000000
vt 0.000000 0.000000
vt 1.000000 0.000000
vt 1.000000 1.000000
vt 0.000000 1.000000
vt 0.000000 0.000000
vt 1.000000 0.000000
vt 1.000000 1.000000
vt 0.000000 1.000000
vt 0.000000 0.000000
vt 1.000000 0.000000
vt 1.000000 1.000000
vt 0.000000 1.000000
vn 0.0000 0.0000 1.0000
usemtl Material.015
s off
f 1/1/1 2/2/1 4/3/1 3/4/1
usemtl Material.006
f 5/5/1 6/6/1 8/7/1 7/8/1
usemtl Material.001
f 9/9/1 10/10/1 12/11/1 11/12/1
usemtl Material.005
f 13/13/1 14/14/1 16/15/1 15/16/1
usemtl Material.009
f 17/17/1 18/18/1 20/19/1 19/20/1
usemtl Material.008
f 21/21/1 22/22/1 24/23/1 23/24/1
usemtl Material.007
f 25/25/1 26/26/1 28/27/1 27/28/1
usemtl Material.012
f 29/29/1 30/30/1 32/31/1 31/32/1
usemtl Material.011
f 33/33/1 34/34/1 36/35/1 35/36/1
usemtl Material.010
f 37/37/1 38/38/1 40/39/1 39/40/1
